<svg width="512" height="512" viewBox="0 0 512 512" fill="none" xmlns="http://www.w3.org/2000/svg">
<rect width="512" height="512" rx="110" fill="#FF8C03"/>
<path fill-rule="evenodd" clip-rule="evenodd" d="M89 32C56.9675 32 31 57.9675 31 90V326C31 358.033 56.9675 384 89 384H104V186C104 140.713 140.713 104 186 104H383V90C383 57.9675 357.033 32 325 32H89Z" fill="white"/>
<path fill-rule="evenodd" clip-rule="evenodd" d="M186 128C153.967 128 128 153.967 128 186V422C128 454.033 153.967 480 186 480H422C454.033 480 480 454.033 480 422V186C480 153.967 454.033 128 422 128H186ZM304 336C321.673 336 336 321.673 336 304C336 286.327 321.673 272 304 272C286.327 272 272 286.327 272 304C272 321.673 286.327 336 304 336ZM272 240C272 257.673 257.673 272 240 272C222.327 272 208 257.673 208 240C208 222.327 222.327 208 240 208C257.673 208 272 222.327 272 240ZM368 272C385.673 272 400 257.673 400 240C400 222.327 385.673 208 368 208C350.327 208 336 222.327 336 240C336 257.673 350.327 272 368 272ZM400 368C400 385.673 385.673 400 368 400C350.327 400 336 385.673 336 368C336 350.327 350.327 336 368 336C385.673 336 400 350.327 400 368ZM240 400C257.673 400 272 385.673 272 368C272 350.327 257.673 336 240 336C222.327 336 208 350.327 208 368C208 385.673 222.327 400 240 400Z" fill="white"/>
</svg>
